<svg width="75" height="14" viewBox="0 0 75 14" fill="none" xmlns="http://www.w3.org/2000/svg">
<g clip-path="url(#clip0_16_6)">
<path fill-rule="evenodd" clip-rule="evenodd" d="M1.07052 7.76241H6.21977V12.9426H1.07052V7.76241Z" fill="white"/>
<path d="M16.4537 11.0554V2.72758H18.7567V11.0554H16.4537Z" stroke="white" stroke-width="0.402229"/>
<path d="M20.7769 11.0554V2.72758H22.9761C24.1933 4.356 25.6442 6.32121 26.7922 8.03895C26.8128 6.34307 26.813 4.47968 26.7922 2.72758H28.9653V11.0554H26.7922C25.5404 9.35815 24.1689 7.43002 22.9484 5.6478C22.983 7.31748 22.9761 9.32384 22.9761 11.0554H20.7769Z" stroke="white" stroke-width="0.402229"/>
<path d="M32.0997 11.0554V4.69273H30.2255V2.72758H36.2631V4.69273H34.382V11.0554H32.0997Z" stroke="white" stroke-width="0.402229"/>
<path d="M37.4871 11.0554V2.72758H42.6187V4.54845H39.714V5.99828H42.4527V7.77789H39.714V9.19331H42.6187V11.0554L37.4871 11.0554Z" stroke="white" stroke-width="0.402229"/>
<path fill-rule="evenodd" clip-rule="evenodd" d="M50.7746 11.2754V2.55693H56.1512V4.46476H53.1081V5.97662H55.9775V7.84847H53.1081V9.32435H56.1512V11.2754H50.7746Z" fill="white"/>
<path fill-rule="evenodd" clip-rule="evenodd" d="M64.0946 2.88814V5.48711C63.7683 5.12716 63.442 4.86077 63.1162 4.69515C62.7898 4.52237 62.4421 4.43598 62.0729 4.43598C61.3841 4.43598 60.8262 4.67355 60.3989 5.14154C59.9784 5.60232 59.7609 6.21428 59.7609 6.97015C59.7609 7.6685 59.9784 8.25164 60.413 8.71242C60.8481 9.17319 61.3988 9.40355 62.0729 9.40355C62.4421 9.40355 62.7898 9.31716 63.1162 9.14438C63.442 8.97881 63.7683 8.71242 64.0946 8.34525V10.9514C63.7102 11.1314 63.3405 11.2682 62.964 11.3618C62.5869 11.4482 62.2031 11.4986 61.826 11.4986C61.3407 11.4986 60.8988 11.441 60.5004 11.3258C60.0945 11.2106 59.7175 11.0378 59.3771 10.8075C58.7249 10.3755 58.2177 9.82834 57.8772 9.16597C57.5295 8.49644 57.3553 7.75489 57.3553 6.91979C57.3553 6.25025 57.4641 5.64546 57.6884 5.09835C57.906 4.55118 58.2323 4.05443 58.6815 3.61526C59.0947 3.19052 59.5653 2.87371 60.0872 2.65773C60.6018 2.44897 61.1812 2.34814 61.826 2.34814C62.2031 2.34814 62.5869 2.39134 62.964 2.47773C63.3405 2.57134 63.7102 2.70814 64.0946 2.88814Z" fill="white"/>
<path fill-rule="evenodd" clip-rule="evenodd" d="M65.4411 11.2754V2.55693H67.8325V5.94064H71.021V2.55693H73.4192V11.2754H71.021V7.72605H67.8325V11.2754H65.4411Z" fill="white"/>
<path fill-rule="evenodd" clip-rule="evenodd" d="M0.826612 7.29829H6.46377V12.9355H0.826612V7.29829Z" fill="#1B1918" stroke="white" stroke-width="0.0522952" stroke-miterlimit="10"/>
<path d="M0.826612 7.29829H6.46377V12.9355H0.826612V7.29829Z" stroke="white" stroke-width="0.101976"/>
<path fill-rule="evenodd" clip-rule="evenodd" d="M7.24319 7.30205H12.8804V12.9392H7.24319V7.30205Z" fill="#565757" stroke="white" stroke-width="0.0522952" stroke-miterlimit="10"/>
<path d="M7.24319 7.30205H12.8804V12.9392H7.24319V7.30205Z" stroke="white" stroke-width="0.101976"/>
<path fill-rule="evenodd" clip-rule="evenodd" d="M0.823186 0.840515H6.46035V6.47767H0.823186V0.840515Z" fill="white" stroke="white" stroke-width="0.0522952" stroke-miterlimit="10"/>
<path d="M0.823186 0.840515H6.46035V6.47767H0.823186V0.840515Z" stroke="white" stroke-width="0.101976"/>
<path fill-rule="evenodd" clip-rule="evenodd" d="M7.24319 0.840515H12.8804V6.47767H7.24319V0.840515Z" fill="#F07C00" stroke="white" stroke-width="0.0522952" stroke-miterlimit="10"/>
<path d="M7.24319 0.840515H12.8804V6.47767H7.24319V0.840515Z" stroke="white" stroke-width="0.101976"/>
<path fill-rule="evenodd" clip-rule="evenodd" d="M45.5669 11.2231V4.56366H43.6031V2.50464H49.9219V4.56366H47.9582V11.2231H45.5669Z" fill="white"/>
</g>
<defs>
<clipPath id="clip0_16_6">
<rect width="73.6839" height="12.394" fill="white" transform="translate(0.773454 0.688919)"/>
</clipPath>
</defs>
</svg>
