<svg width="121" height="16" viewBox="0 0 121 16" fill="none" xmlns="http://www.w3.org/2000/svg">
<path d="M4.49763 4.58149C4.49763 4.87452 4.46035 5.14154 4.38579 5.38255C4.31296 5.62183 4.20286 5.82817 4.05548 6.00156C3.9081 6.17321 3.72344 6.30586 3.5015 6.39949C3.27956 6.49312 3.01947 6.53993 2.72124 6.53993C2.41781 6.53993 2.15426 6.49312 1.93058 6.39949C1.70864 6.30586 1.52398 6.17234 1.3766 5.99895C1.23095 5.82556 1.12172 5.61836 1.04889 5.37735C0.976069 5.13634 0.939657 4.86932 0.939657 4.57629C0.939657 4.18443 1.00381 3.84285 1.13212 3.55155C1.26216 3.25852 1.45896 3.03138 1.72251 2.87013C1.9878 2.70714 2.32244 2.62565 2.72644 2.62565C3.12177 2.62565 3.45035 2.70627 3.71217 2.86753C3.97399 3.02878 4.16992 3.25592 4.29996 3.54895C4.43174 3.84025 4.49763 4.18443 4.49763 4.58149ZM1.59507 4.58149C1.59507 4.87452 1.63495 5.12854 1.71471 5.34354C1.79447 5.55681 1.91671 5.72153 2.08143 5.8377C2.24789 5.95214 2.46116 6.00936 2.72124 6.00936C2.98306 6.00936 3.19633 5.95214 3.36105 5.8377C3.52577 5.72153 3.64715 5.55681 3.72517 5.34354C3.8032 5.12854 3.84221 4.87452 3.84221 4.58149C3.84221 4.13588 3.75291 3.78736 3.57432 3.53595C3.39746 3.2828 3.11484 3.15622 2.72644 3.15622C2.46636 3.15622 2.25222 3.21344 2.08403 3.32788C1.91758 3.44231 1.79447 3.60617 1.71471 3.81944C1.63495 4.03097 1.59507 4.28499 1.59507 4.58149ZM8.6902 4.58149C8.6902 4.87452 8.65292 5.14154 8.57837 5.38255C8.50554 5.62183 8.39544 5.82817 8.24806 6.00156C8.10068 6.17321 7.91601 6.30586 7.69408 6.39949C7.47214 6.49312 7.21205 6.53993 6.91382 6.53993C6.61039 6.53993 6.34683 6.49312 6.12316 6.39949C5.90122 6.30586 5.71656 6.17234 5.56918 5.99895C5.42353 5.82556 5.31429 5.61836 5.24147 5.37735C5.16865 5.13634 5.13223 4.86932 5.13223 4.57629C5.13223 4.18443 5.19639 3.84285 5.3247 3.55155C5.45474 3.25852 5.65154 3.03138 5.91509 2.87013C6.18038 2.70714 6.51502 2.62565 6.91902 2.62565C7.31435 2.62565 7.64293 2.70627 7.90474 2.86753C8.16656 3.02878 8.36249 3.25592 8.49254 3.54895C8.62431 3.84025 8.6902 4.18443 8.6902 4.58149ZM5.78765 4.58149C5.78765 4.87452 5.82753 5.12854 5.90729 5.34354C5.98705 5.55681 6.10929 5.72153 6.27401 5.8377C6.44046 5.95214 6.65373 6.00936 6.91382 6.00936C7.17564 6.00936 7.38891 5.95214 7.55363 5.8377C7.71835 5.72153 7.83972 5.55681 7.91775 5.34354C7.99577 5.12854 8.03479 4.87452 8.03479 4.58149C8.03479 4.13588 7.94549 3.78736 7.7669 3.53595C7.59004 3.2828 7.30741 3.15622 6.91902 3.15622C6.65894 3.15622 6.4448 3.21344 6.27661 3.32788C6.11015 3.44231 5.98705 3.60617 5.90729 3.81944C5.82753 4.03097 5.78765 4.28499 5.78765 4.58149ZM12.8828 4.58149C12.8828 4.87452 12.8455 5.14154 12.7709 5.38255C12.6981 5.62183 12.588 5.82817 12.4406 6.00156C12.2933 6.17321 12.1086 6.30586 11.8867 6.39949C11.6647 6.49312 11.4046 6.53993 11.1064 6.53993C10.803 6.53993 10.5394 6.49312 10.3157 6.39949C10.0938 6.30586 9.90914 6.17234 9.76175 5.99895C9.61611 5.82556 9.50687 5.61836 9.43405 5.37735C9.36122 5.13634 9.32481 4.86932 9.32481 4.57629C9.32481 4.18443 9.38896 3.84285 9.51727 3.55155C9.64732 3.25852 9.84411 3.03138 10.1077 2.87013C10.373 2.70714 10.7076 2.62565 11.1116 2.62565C11.5069 2.62565 11.8355 2.70627 12.0973 2.86753C12.3591 3.02878 12.5551 3.25592 12.6851 3.54895C12.8169 3.84025 12.8828 4.18443 12.8828 4.58149ZM9.98023 4.58149C9.98023 4.87452 10.0201 5.12854 10.0999 5.34354C10.1796 5.55681 10.3019 5.72153 10.4666 5.8377C10.633 5.95214 10.8463 6.00936 11.1064 6.00936C11.3682 6.00936 11.5815 5.95214 11.7462 5.8377C11.9109 5.72153 12.0323 5.55681 12.1103 5.34354C12.1884 5.12854 12.2274 4.87452 12.2274 4.58149C12.2274 4.13588 12.1381 3.78736 11.9595 3.53595C11.7826 3.2828 11.5 3.15622 11.1116 3.15622C10.8515 3.15622 10.6374 3.21344 10.4692 3.32788C10.3027 3.44231 10.1796 3.60617 10.0999 3.81944C10.0201 4.03097 9.98023 4.28499 9.98023 4.58149ZM14.7944 5.01843L15.7177 3.89486L16.1573 4.13934L15.4212 5.04964L16.1573 5.96254L15.7177 6.20702L14.7944 5.08866V5.01843ZM15.97 5.01843L16.8985 3.89486L17.338 4.13934L16.602 5.04964L17.338 5.96254L16.8985 6.20702L15.97 5.08866V5.01843ZM21.0417 6.48792H20.4201V4.77135H18.6671V6.48792H18.0429V2.68547H18.6671V4.24078H20.4201V2.68547H21.0417V6.48792ZM22.0482 6.48792V2.68547H24.9689V6.48792H24.3499V3.21604H22.6724V6.48792H22.0482ZM28.8884 6.48792H28.1628L26.5997 4.55808V6.48792H25.9755V2.68547H26.5997V4.52687L28.1342 2.68547H28.8156L27.2811 4.52167L28.8884 6.48792ZM30.488 5.01843L31.4113 3.89486L31.8508 4.13934L31.1148 5.04964L31.8508 5.96254L31.4113 6.20702L30.488 5.08866V5.01843ZM31.6635 5.01843L32.5921 3.89486L33.0316 4.13934L32.2956 5.04964L33.0316 5.96254L32.5921 6.20702L31.6635 5.08866V5.01843ZM33.739 2.68547H34.3086V4.70113C34.3086 4.78782 34.3077 4.88319 34.306 4.98722C34.3043 5.09126 34.3008 5.19269 34.2956 5.29152C34.2921 5.39035 34.2887 5.47878 34.2852 5.55681C34.2817 5.6331 34.2783 5.68859 34.2748 5.72326H34.293L36.228 2.68547H36.9537V6.48792H36.3893V4.48786C36.3893 4.39423 36.391 4.29279 36.3945 4.18356C36.398 4.07432 36.4023 3.96855 36.4075 3.86625C36.4127 3.76395 36.4179 3.67379 36.4231 3.59577C36.4283 3.51774 36.4318 3.46225 36.4335 3.42931H36.4101L34.4699 6.48792H33.739V2.68547ZM38.5064 3.60877V4.76615H39.8536V3.60877H40.4674V6.48792H39.8536V5.24471H38.5064V6.48792H37.8926V3.60877H38.5064ZM43.5156 4.08993H42.5689V6.48792H41.9603V4.08993H41.0188V3.60877H43.5156V4.08993ZM45.2192 3.55415C45.4758 3.55415 45.696 3.60704 45.8798 3.7128C46.0636 3.81857 46.2049 3.96855 46.3038 4.16275C46.4026 4.35695 46.452 4.58929 46.452 4.85978V5.18749H44.53C44.5369 5.46665 44.6115 5.68165 44.7536 5.8325C44.8976 5.98335 45.0987 6.05877 45.357 6.05877C45.5408 6.05877 45.7056 6.04144 45.8512 6.00676C45.9986 5.97035 46.1503 5.91746 46.3064 5.8481V6.34487C46.1624 6.41249 46.0159 6.46191 45.8668 6.49312C45.7177 6.52433 45.5391 6.53993 45.331 6.53993C45.0484 6.53993 44.7996 6.48531 44.5846 6.37608C44.3713 6.26511 44.204 6.10039 44.0826 5.88192C43.963 5.66344 43.9032 5.39209 43.9032 5.06785C43.9032 4.74534 43.9578 4.47139 44.067 4.24598C44.1763 4.02057 44.3297 3.84891 44.5274 3.73101C44.725 3.6131 44.9556 3.55415 45.2192 3.55415ZM45.2192 4.0145C45.0267 4.0145 44.8707 4.07692 44.751 4.20176C44.6331 4.32661 44.5638 4.50953 44.543 4.75054H45.8538C45.8521 4.60663 45.8278 4.47919 45.781 4.36822C45.7359 4.25725 45.6665 4.17055 45.5729 4.10813C45.481 4.04571 45.3631 4.0145 45.2192 4.0145ZM49.5106 6.48792H48.8942V4.08733H48.0957C48.0611 4.52427 48.0177 4.89793 47.9657 5.20829C47.9137 5.51866 47.8487 5.77181 47.7706 5.96774C47.6926 6.16194 47.5964 6.30412 47.4819 6.39428C47.3675 6.48445 47.2297 6.52953 47.0684 6.52953C46.9973 6.52953 46.9332 6.52433 46.8759 6.51392C46.8187 6.50525 46.7676 6.49138 46.7225 6.47231V5.99115C46.752 6.00156 46.784 6.01022 46.8187 6.01716C46.8534 6.0241 46.8889 6.02756 46.9254 6.02756C46.9895 6.02756 47.0485 6.00156 47.1022 5.94954C47.1577 5.89579 47.2089 5.81169 47.2557 5.69726C47.3025 5.58282 47.345 5.43197 47.3831 5.24471C47.4213 5.05571 47.4559 4.82684 47.4871 4.55808C47.5184 4.28759 47.5461 3.97116 47.5704 3.60877H49.5106V6.48792ZM52.7565 6.48792H52.1401V4.08733H51.3416C51.3069 4.52427 51.2636 4.89793 51.2116 5.20829C51.1596 5.51866 51.0945 5.77181 51.0165 5.96774C50.9385 6.16194 50.8422 6.30412 50.7278 6.39428C50.6134 6.48445 50.4755 6.52953 50.3143 6.52953C50.2432 6.52953 50.179 6.52433 50.1218 6.51392C50.0646 6.50525 50.0134 6.49138 49.9684 6.47231V5.99115C49.9978 6.00156 50.0299 6.01022 50.0646 6.01716C50.0993 6.0241 50.1348 6.02756 50.1712 6.02756C50.2354 6.02756 50.2943 6.00156 50.3481 5.94954C50.4036 5.89579 50.4547 5.81169 50.5015 5.69726C50.5483 5.58282 50.5908 5.43197 50.629 5.24471C50.6671 5.05571 50.7018 4.82684 50.733 4.55808C50.7642 4.28759 50.792 3.97116 50.8162 3.60877H52.7565V6.48792ZM54.7799 3.55415C55.0366 3.55415 55.2568 3.60704 55.4406 3.7128C55.6244 3.81857 55.7657 3.96855 55.8645 4.16275C55.9633 4.35695 56.0127 4.58929 56.0127 4.85978V5.18749H54.0907C54.0977 5.46665 54.1722 5.68165 54.3144 5.8325C54.4583 5.98335 54.6594 6.05877 54.9178 6.05877C55.1016 6.05877 55.2663 6.04144 55.4119 6.00676C55.5593 5.97035 55.711 5.91746 55.8671 5.8481V6.34487C55.7232 6.41249 55.5767 6.46191 55.4276 6.49312C55.2784 6.52433 55.0998 6.53993 54.8918 6.53993C54.6092 6.53993 54.3603 6.48531 54.1453 6.37608C53.9321 6.26511 53.7647 6.10039 53.6434 5.88192C53.5237 5.66344 53.4639 5.39209 53.4639 5.06785C53.4639 4.74534 53.5185 4.47139 53.6278 4.24598C53.737 4.02057 53.8905 3.84891 54.0881 3.73101C54.2858 3.6131 54.5164 3.55415 54.7799 3.55415ZM54.7799 4.0145C54.5875 4.0145 54.4314 4.07692 54.3118 4.20176C54.1939 4.32661 54.1245 4.50953 54.1037 4.75054H55.4146C55.4128 4.60663 55.3885 4.47919 55.3417 4.36822C55.2966 4.25725 55.2273 4.17055 55.1337 4.10813C55.0418 4.04571 54.9239 4.0145 54.7799 4.0145ZM58.4862 3.60877H59.1598L57.9686 4.99242L59.2612 6.48792H58.5564L57.3158 5.02623V6.48792H56.702V3.60877H57.3158V5.00543L58.4862 3.60877ZM61.9037 4.08993H60.957V6.48792H60.3484V4.08993H59.4069V3.60877H61.9037V4.08993ZM62.0259 3.60877H62.6917L63.2821 5.25251C63.3081 5.32707 63.3315 5.40076 63.3524 5.47358C63.3749 5.54467 63.394 5.61489 63.4096 5.68425C63.4269 5.75361 63.4408 5.82296 63.4512 5.89232H63.4668C63.4841 5.80216 63.5084 5.70159 63.5396 5.59062C63.5726 5.47792 63.609 5.36521 63.6489 5.25251L64.2158 3.60877H64.8739L63.6384 6.88324C63.5674 7.07051 63.4798 7.23003 63.3758 7.3618C63.2735 7.49531 63.1521 7.59588 63.0116 7.6635C62.8712 7.73286 62.7108 7.76754 62.5305 7.76754C62.4438 7.76754 62.3684 7.76233 62.3042 7.75193C62.2401 7.74326 62.1854 7.73372 62.1404 7.72332V7.23436C62.1768 7.24303 62.2227 7.25083 62.2782 7.25777C62.3337 7.2647 62.3909 7.26817 62.4499 7.26817C62.5591 7.26817 62.6536 7.2465 62.7334 7.20315C62.8131 7.1598 62.8807 7.09825 62.9362 7.01849C62.9917 6.94046 63.0377 6.85117 63.0741 6.7506L63.1755 6.48011L62.0259 3.60877ZM66.4396 3.55415C66.8037 3.55415 67.0785 3.63478 67.264 3.79603C67.4513 3.95728 67.5449 4.2087 67.5449 4.55028V6.48792H67.1106L66.9936 6.07958H66.9727C66.8913 6.18362 66.8072 6.26944 66.7205 6.33707C66.6338 6.40469 66.5332 6.45497 66.4188 6.48792C66.3061 6.52259 66.1682 6.53993 66.0052 6.53993C65.8336 6.53993 65.6801 6.50872 65.5449 6.4463C65.4096 6.38215 65.303 6.28505 65.225 6.15501C65.1469 6.02496 65.1079 5.86024 65.1079 5.66084C65.1079 5.36435 65.218 5.14154 65.4382 4.99242C65.6602 4.84331 65.9948 4.76095 66.4422 4.74534L66.9415 4.72714V4.57629C66.9415 4.37689 66.8947 4.23471 66.8011 4.14975C66.7092 4.06479 66.5791 4.02231 66.411 4.02231C66.267 4.02231 66.1275 4.04311 65.9922 4.08473C65.857 4.12634 65.7252 4.17749 65.5969 4.23818L65.3992 3.80643C65.5397 3.73188 65.6992 3.67119 65.8778 3.62437C66.0581 3.57756 66.2454 3.55415 66.4396 3.55415ZM66.9389 5.11206L66.567 5.12507C66.2618 5.13547 66.0477 5.18749 65.9246 5.28112C65.8015 5.37475 65.7399 5.50306 65.7399 5.66605C65.7399 5.80823 65.7824 5.91226 65.8674 5.97815C65.9523 6.0423 66.0642 6.07438 66.2029 6.07438C66.4144 6.07438 66.5896 6.01456 66.7283 5.89492C66.8687 5.77355 66.9389 5.59582 66.9389 5.36175V5.11206ZM70.77 6.48792H70.1536V4.08733H69.3551C69.3204 4.52427 69.2771 4.89793 69.2251 5.20829C69.1731 5.51866 69.108 5.77181 69.03 5.96774C68.952 6.16194 68.8558 6.30412 68.7413 6.39428C68.6269 6.48445 68.489 6.52953 68.3278 6.52953C68.2567 6.52953 68.1925 6.52433 68.1353 6.51392C68.0781 6.50525 68.027 6.49138 67.9819 6.47231V5.99115C68.0114 6.00156 68.0434 6.01022 68.0781 6.01716C68.1128 6.0241 68.1483 6.02756 68.1847 6.02756C68.2489 6.02756 68.3078 6.00156 68.3616 5.94954C68.4171 5.89579 68.4682 5.81169 68.515 5.69726C68.5619 5.58282 68.6043 5.43197 68.6425 5.24471C68.6806 5.05571 68.7153 4.82684 68.7465 4.55808C68.7777 4.28759 68.8055 3.97116 68.8298 3.60877H70.77V6.48792ZM72.2603 4.75835H72.9755C73.246 4.75835 73.4697 4.78956 73.6465 4.85198C73.8251 4.91266 73.9586 5.00456 74.0471 5.12767C74.1355 5.25078 74.1797 5.40509 74.1797 5.59062C74.1797 5.77268 74.1381 5.93133 74.0549 6.06658C73.9716 6.20009 73.8416 6.30412 73.6647 6.37868C73.4896 6.4515 73.2607 6.48792 72.9781 6.48792H71.6465V3.60877H72.2603V4.75835ZM73.5659 5.60623C73.5659 5.46231 73.5122 5.36088 73.4047 5.30193C73.2972 5.24124 73.1437 5.2109 72.9443 5.2109H72.2603V6.03797H72.9495C73.1316 6.03797 73.2798 6.00502 73.3943 5.93913C73.5087 5.87151 73.5659 5.76054 73.5659 5.60623ZM75.4697 3.60877V4.76615H76.817V3.60877H77.4308V6.48792H76.817V5.24471H75.4697V6.48792H74.8559V3.60877H75.4697ZM78.3047 6.48792V3.60877H78.9185V4.75835H79.4985C79.7689 4.75835 79.9918 4.78956 80.1669 4.85198C80.342 4.91266 80.472 5.00456 80.557 5.12767C80.642 5.25078 80.6844 5.40509 80.6844 5.59062C80.6844 5.77268 80.6437 5.93133 80.5622 6.06658C80.4807 6.20009 80.3533 6.30412 80.1799 6.37868C80.0065 6.4515 79.7793 6.48792 79.4985 6.48792H78.3047ZM78.9185 6.03797H79.4568C79.6406 6.03797 79.7889 6.00502 79.9016 5.93913C80.016 5.87151 80.0732 5.76054 80.0732 5.60623C80.0732 5.46231 80.0204 5.36088 79.9146 5.30193C79.8106 5.24124 79.658 5.2109 79.4568 5.2109H78.9185V6.03797ZM81.1292 6.48792V3.60877H81.743V6.48792H81.1292ZM83.7639 3.55415C84.0205 3.55415 84.2407 3.60704 84.4245 3.7128C84.6083 3.81857 84.7496 3.96855 84.8484 4.16275C84.9472 4.35695 84.9967 4.58929 84.9967 4.85978V5.18749H83.0746C83.0816 5.46665 83.1561 5.68165 83.2983 5.8325C83.4422 5.98335 83.6434 6.05877 83.9017 6.05877C84.0855 6.05877 84.2502 6.04144 84.3959 6.00676C84.5432 5.97035 84.695 5.91746 84.851 5.8481V6.34487C84.7071 6.41249 84.5606 6.46191 84.4115 6.49312C84.2624 6.52433 84.0838 6.53993 83.8757 6.53993C83.5931 6.53993 83.3443 6.48531 83.1293 6.37608C82.916 6.26511 82.7487 6.10039 82.6273 5.88192C82.5076 5.66344 82.4478 5.39209 82.4478 5.06785C82.4478 4.74534 82.5024 4.47139 82.6117 4.24598C82.7209 4.02057 82.8744 3.84891 83.072 3.73101C83.2697 3.6131 83.5003 3.55415 83.7639 3.55415ZM83.7639 4.0145C83.5714 4.0145 83.4153 4.07692 83.2957 4.20176C83.1778 4.32661 83.1084 4.50953 83.0876 4.75054H84.3985C84.3967 4.60663 84.3725 4.47919 84.3256 4.36822C84.2806 4.25725 84.2112 4.17055 84.1176 4.10813C84.0257 4.04571 83.9078 4.0145 83.7639 4.0145ZM3.23361 11.0899H2.2869V13.4879H1.6783V11.0899H0.73679V10.6088H3.23361V11.0899ZM4.93717 10.5542C5.19379 10.5542 5.41399 10.607 5.59779 10.7128C5.78158 10.8186 5.92289 10.9686 6.02173 11.1628C6.12056 11.3569 6.16997 11.5893 6.16997 11.8598V12.1875H4.24794C4.25488 12.4666 4.32944 12.6817 4.47162 12.8325C4.61553 12.9833 4.81666 13.0588 5.07502 13.0588C5.25881 13.0588 5.42353 13.0414 5.56918 13.0068C5.71656 12.9703 5.86828 12.9175 6.02433 12.8481V13.3449C5.88041 13.4125 5.7339 13.4619 5.58478 13.4931C5.43567 13.5243 5.25707 13.5399 5.04901 13.5399C4.76638 13.5399 4.51757 13.4853 4.30256 13.3761C4.08929 13.2651 3.92197 13.1004 3.8006 12.8819C3.68096 12.6634 3.62114 12.3921 3.62114 12.0678C3.62114 11.7453 3.67576 11.4714 3.78499 11.246C3.89423 11.0206 4.04768 10.8489 4.24534 10.731C4.44301 10.6131 4.67362 10.5542 4.93717 10.5542ZM4.93717 11.0145C4.74471 11.0145 4.58866 11.0769 4.46902 11.2018C4.35111 11.3266 4.28175 11.5095 4.26095 11.7505H5.57178C5.57004 11.6066 5.54577 11.4792 5.49895 11.3682C5.45387 11.2572 5.38452 11.1706 5.29089 11.1081C5.19899 11.0457 5.08108 11.0145 4.93717 11.0145ZM7.49641 12.0158L6.53409 10.6088H7.23112L7.88914 11.6205L8.54976 10.6088H9.24418L8.27667 12.0158L9.2936 13.4879H8.59397L7.88914 12.4086L7.18171 13.4879H6.48728L7.49641 12.0158ZM10.4068 10.6088V11.7661H11.754V10.6088H12.3678V13.4879H11.754V12.2447H10.4068V13.4879H9.79296V10.6088H10.4068ZM15.7905 12.0418C15.7905 12.2811 15.7593 12.4935 15.6969 12.679C15.6345 12.8646 15.5435 13.0215 15.4238 13.1498C15.3042 13.2764 15.1603 13.3735 14.9921 13.4411C14.8239 13.507 14.634 13.5399 14.4225 13.5399C14.2248 13.5399 14.0436 13.507 13.8789 13.4411C13.7142 13.3735 13.5711 13.2764 13.4498 13.1498C13.3301 13.0215 13.2374 12.8646 13.1715 12.679C13.1056 12.4935 13.0726 12.2811 13.0726 12.0418C13.0726 11.7245 13.1273 11.4558 13.2365 11.2356C13.3475 11.0136 13.5053 10.8446 13.7099 10.7284C13.9145 10.6122 14.1581 10.5542 14.4407 10.5542C14.706 10.5542 14.9401 10.6122 15.1429 10.7284C15.3458 10.8446 15.5044 11.0136 15.6189 11.2356C15.7333 11.4575 15.7905 11.7263 15.7905 12.0418ZM13.702 12.0418C13.702 12.2516 13.7272 12.4311 13.7775 12.5802C13.8295 12.7293 13.9093 12.8438 14.0168 12.9235C14.1243 13.0016 14.263 13.0406 14.4329 13.0406C14.6028 13.0406 14.7415 13.0016 14.849 12.9235C14.9565 12.8438 15.0354 12.7293 15.0857 12.5802C15.136 12.4311 15.1611 12.2516 15.1611 12.0418C15.1611 11.832 15.136 11.6543 15.0857 11.5087C15.0354 11.3613 14.9565 11.2494 14.849 11.1732C14.7415 11.0951 14.6019 11.0561 14.4303 11.0561C14.1771 11.0561 13.9925 11.1411 13.8763 11.311C13.7601 11.4809 13.702 11.7245 13.702 12.0418ZM18.8621 13.4879H18.2457V11.0873H17.4473C17.4126 11.5243 17.3693 11.8979 17.3172 12.2083C17.2652 12.5187 17.2002 12.7718 17.1222 12.9677C17.0441 13.1619 16.9479 13.3041 16.8335 13.3943C16.719 13.4844 16.5812 13.5295 16.4199 13.5295C16.3489 13.5295 16.2847 13.5243 16.2275 13.5139C16.1703 13.5053 16.1191 13.4914 16.074 13.4723V12.9912C16.1035 13.0016 16.1356 13.0102 16.1703 13.0172C16.2049 13.0241 16.2405 13.0276 16.2769 13.0276C16.341 13.0276 16.4 13.0016 16.4538 12.9495C16.5092 12.8958 16.5604 12.8117 16.6072 12.6973C16.654 12.5828 16.6965 12.432 16.7346 12.2447C16.7728 12.0557 16.8075 11.8268 16.8387 11.5581C16.8699 11.2876 16.8976 10.9712 16.9219 10.6088H18.8621V13.4879ZM22.2875 12.0418C22.2875 12.2811 22.2563 12.4935 22.1938 12.679C22.1314 12.8646 22.0404 13.0215 21.9207 13.1498C21.8011 13.2764 21.6572 13.3735 21.489 13.4411C21.3208 13.507 21.131 13.5399 20.9194 13.5399C20.7218 13.5399 20.5406 13.507 20.3758 13.4411C20.2111 13.3735 20.0681 13.2764 19.9467 13.1498C19.8271 13.0215 19.7343 12.8646 19.6684 12.679C19.6025 12.4935 19.5696 12.2811 19.5696 12.0418C19.5696 11.7245 19.6242 11.4558 19.7334 11.2356C19.8444 11.0136 20.0022 10.8446 20.2068 10.7284C20.4114 10.6122 20.655 10.5542 20.9376 10.5542C21.2029 10.5542 21.437 10.6122 21.6399 10.7284C21.8427 10.8446 22.0014 11.0136 22.1158 11.2356C22.2302 11.4575 22.2875 11.7263 22.2875 12.0418ZM20.199 12.0418C20.199 12.2516 20.2241 12.4311 20.2744 12.5802C20.3264 12.7293 20.4062 12.8438 20.5137 12.9235C20.6212 13.0016 20.7599 13.0406 20.9298 13.0406C21.0997 13.0406 21.2385 13.0016 21.346 12.9235C21.4535 12.8438 21.5324 12.7293 21.5826 12.5802C21.6329 12.4311 21.6581 12.2516 21.6581 12.0418C21.6581 11.832 21.6329 11.6543 21.5826 11.5087C21.5324 11.3613 21.4535 11.2494 21.346 11.1732C21.2385 11.0951 21.0989 11.0561 20.9272 11.0561C20.6741 11.0561 20.4894 11.1411 20.3732 11.311C20.2571 11.4809 20.199 11.7245 20.199 12.0418ZM24.8571 10.6088V11.0899H23.6035V13.4879H22.9897V10.6088H24.8571ZM26.0015 10.6088V12.0783C26.0015 12.1251 25.9998 12.1849 25.9963 12.2577C25.9946 12.3288 25.9911 12.4034 25.9859 12.4814C25.9807 12.5577 25.9755 12.6279 25.9703 12.6921C25.9651 12.7562 25.9607 12.8039 25.9573 12.8351L27.4059 10.6088H28.1498V13.4879H27.5646V12.034C27.5646 11.9577 27.5663 11.8693 27.5698 11.7688C27.575 11.6682 27.5802 11.5711 27.5854 11.4775C27.5923 11.3838 27.5967 11.3127 27.5984 11.2642L26.1549 13.4879H25.4137V10.6088H26.0015ZM29.6167 10.6088V12.0783C29.6167 12.1251 29.6149 12.1849 29.6115 12.2577C29.6097 12.3288 29.6063 12.4034 29.6011 12.4814C29.5959 12.5577 29.5907 12.6279 29.5855 12.6921C29.5803 12.7562 29.5759 12.8039 29.5725 12.8351L31.0211 10.6088H31.765V13.4879H31.1798V12.034C31.1798 11.9577 31.1815 11.8693 31.185 11.7688C31.1902 11.6682 31.1954 11.5711 31.2006 11.4775C31.2075 11.3838 31.2119 11.3127 31.2136 11.2642L29.7701 13.4879H29.0289V10.6088H29.6167ZM34.9588 12.0861L34.0277 13.207L33.5908 12.9625L34.3242 12.0496L33.5908 11.1393L34.0277 10.8949L34.9588 12.0184V12.0861ZM33.778 12.0861L32.8521 13.207L32.4152 12.9625L33.1486 12.0496L32.4152 11.1393L32.8521 10.8949L33.778 12.0184V12.0861Z" fill="#F5F5F5"/>
</svg>
